<svg xmlns="http://www.w3.org/2000/svg" version="1.1" xmlns:xlink="http://www.w3.org/1999/xlink" xmlns:svgjs="http://svgjs.dev/svgjs" width="112" height="40" viewBox="0 0 2000 1500"><rect width="112" height="40" fill="#ffffff"></rect><g transform="matrix(0.4444444444444444,0,0,0.4444444444444444,555.5555555555557,250)"><svg viewBox="0 0 320 360" data-background-color="#ffffff" preserveAspectRatio="xMidYMid meet" width="112" height="40" xmlns="http://www.w3.org/2000/svg" xmlns:xlink="http://www.w3.org/1999/xlink"><defs></defs><g id="tight-bounds" transform="matrix(1,0,0,1,0,0)"><svg viewBox="0 0 320 360" width="112" height="40"><g><svg></svg></g><g><svg viewBox="0 0 320 360" width="112" height="40"><g><path d="M219.58 41.008c0.707 0 6.365 2.829 9.547 3.89-1.061 0.354-3.536-0.707-6.365-1.768 0.707 0 2.122 0.354 3.536 1.06-0.707-0.707-6.011-2.475-6.718-3.182M166.895 30.047c1.061-0.354 13.436 1.414 19.094 1.768 0.354-0.354-0.707-0.354-2.122-0.707 1.768-0.354 5.304 0.707 7.779 1.06-7.425 0.354-15.558-1.768-22.629-1.06-2.475 0-0.707-0.707-2.122-1.061M156.641 30.047c6.365 0 11.315 0 2.121 0.707-1.061-0.354-2.475-0.354-2.121-0.707M256.707 59.395c0.707 0 3.536 3.182 4.95 4.243-0.354 0.354-3.182-2.475-4.596-3.536 0.354 0.354 0 0-0.354-0.707M249.635 54.798c-2.829-2.475-3.889-2.475-4.243-3.889 2.475 1.414 4.243 2.829 4.243 3.889M204.022 32.522c0.354-0.354 1.061 0.354 2.829 0.707-2.122-0.354-1.768 0-1.061 0.707-2.475-0.354-3.182-0.707-2.475-1.414 1.414 0.707 1.768 0.354 0.707 0M103.602 36.765c0-0.354 1.414-1.061 2.475-1.414-1.061 0.707-0.707 1.061 1.061 0.353 0 0.354-2.122 1.061-3.536 1.768 0.707-0.354 1.414-1.414 0-0.707M211.094 28.986c-1.061 0.354-4.95-1.768-8.84-2.475-2.122-0.707 8.486 1.768 8.84 2.475M2.475 203.66c2.122 8.84 0.707 8.486 0 0M2.829 150.621c0.354-1.414 0.707-5.304 1.06-4.95-1.061 8.486-2.829 12.376-3.182 18.74 1.061-5.657-0.354 3.182-0.707 5.304 0.354 2.829 0.354-1.768 1.061-1.06 0.707 1.061-1.414 15.912-0.707 7.779-0.707 7.425 0 15.558 1.414 17.679-1.768 11.315 7.072 36.773 8.84 42.077 0.354 0.354 0-1.768 0.707-0.353 0.707 4.597 3.889 7.779 4.95 12.729 1.061 1.414 5.304 9.193 6.011 10.962 1.414 2.829 2.122 2.475 3.536 5.303 4.243 8.133 10.961 15.912 17.326 23.337 20.508 24.044 51.978 43.845 86.984 50.918 35.006 7.425 71.779 2.122 100.419-11.669 1.768-1.061 1.414-1.414 3.536-2.122 9.901-3.182 21.923-13.436 28.641-17.326 3.182-3.536 11.669-9.547 12.73-13.082 6.011-4.95 12.022-13.083 15.204-18.387 1.768-2.829 3.182-2.829 3.889-4.597-0.354 0 5.657-7.425 7.426-11.668-0.707 0-1.768 2.122-1.768 0 12.729-24.398 19.801-57.282 15.911-79.912 0.707 27.934-6.365 59.05-19.801 78.851-6.011 12.729-18.387 26.519-29.701 36.42-1.768 1.768-3.536 3.889-5.658 5.304-6.718 5.657-14.144 10.254-21.922 14.497-18.387 10.254-38.895 19.094-62.94 19.447 41.37-3.536 78.497-24.398 99.006-49.856-15.558 15.204-22.276 21.215-39.602 30.055-1.414 2.475-13.083 7.425-20.862 9.547 4.597-2.122 14.144-5.657 17.326-8.486-25.812 12.376-54.453 19.448-81.326 15.558 10.254 0 24.751 0.354 38.541-2.121 2.122-0.707 3.182-1.414 5.658-1.768 26.873-6.011 52.685-19.094 71.072-37.481-10.608 9.547-26.519 20.862-36.774 24.398 9.547-5.304 26.873-15.558 32.53-23.337-11.315 11.315-32.53 22.63-45.966 27.58-2.122 0.354 1.414-1.414-2.122 0-4.243 1.061-2.475 1.061-3.536 1.768-16.265 4.597-35.006 8.486-50.563 7.072-2.829-0.354-3.889-1.061-6.365-1.061-2.829-0.354-5.304-0.354-8.486-0.354-12.376-1.414-25.812-6.365-35.713-10.607-5.304-2.475-10.608-4.243-15.912-7.426-4.243-2.475-7.779-5.304-11.314-8.132-13.436-9.901-24.751-19.801-35.36-33.945-19.094-26.519-28.994-59.757-27.58-92.641 1.414-32.884 14.497-65.061 35.359-88.752-1.061 1.061 1.414-2.475 3.536-4.596 0 0.707-0.354 1.768 2.122-0.707 2.122-2.475-0.707-0.707 0.353-2.122 21.923-24.044 60.111-43.492 99.36-44.199 1.414-1.061 3.889-2.475 6.718-1.768 0 0.354-1.768 0.354-1.768 0.354 3.889-0.354 7.425-0.354 9.193 0.353 0.354-0.354-1.414-0.707 0-0.707 2.475 0.707 3.182 0 4.597 0.707-1.061 0-2.122 0-2.829 0.354 8.84 0 14.497 2.122 23.337 2.829-4.597-1.061-5.657-1.061-9.193-2.122 3.889 0.707 5.657 1.414 7.425 1.061-0.707 0-0.354-1.061 0.354-0.707 7.072 1.768 7.779 2.475 15.204 4.95 0.707-0.707-3.182-1.061-4.243-2.122 7.072 2.475 13.436 4.243 17.68 7.072-1.414-1.061-5.657-2.475-8.84-3.889-0.354 0.354 1.061 0.707 1.414 1.414-3.536-1.768-8.486-3.536-13.436-4.243 4.243 1.061 7.072 2.475 8.84 3.182-3.889-0.707-8.84-3.182-14.498-4.243 9.193 2.829 26.519 9.193 37.127 14.851-3.889-2.475-8.486-4.243-10.961-5.657 2.122 0.354 4.597 1.768 4.597 1.06 2.475 1.061 5.657 3.536 7.425 3.89-3.182-2.122-9.547-5.304-11.668-6.365 26.519 12.022 50.21 32.177 65.414 57.989 1.414 2.475 3.536 8.133 5.304 8.84-0.354-1.768-1.768-2.829-3.182-5.657 0.707 0 0.707-1.061 0-2.122-1.414-1.768 0 1.414-1.415-0.354-6.365-11.669-14.144-21.923-26.165-33.237 6.718 6.365 1.768 1.768 0.353-0.354 9.193 8.133 19.801 21.923 24.398 28.995-0.707-1.061-1.061-1.768-0.707-1.768 8.486 14.497 13.79 27.58 19.094 46.32 0.354 0.354 0-1.414 0.707-0.353 3.536 14.851 4.597 27.227 4.243 38.541 2.829-19.094-3.536-48.796-14.851-72.133-1.414-2.829-1.414-0.707-2.829-3.889 0-1.061-1.061-3.182-1.768-4.597-14.144-23.337-31.47-39.956-51.978-53.038 1.414 0.707 4.243 2.829 4.244 2.475-38.188-25.105-82.387-28.641-118.807-20.862-2.475 1.061-3.536 2.122-6.365 3.536 5.304-1.768 8.486-2.122 13.437-3.183 1.061-1.061-4.597 0.354-2.122-0.707 0.354 0.354 4.95-0.707 6.011-0.353 0 0.354-1.414 0.707-1.768 1.06 11.669-2.475 23.691-2.829 33.945-2.121-6.011 0.354-16.972-0.707-20.508 1.061 3.536-0.354 8.486-0.707 11.668-0.354-4.243 0-12.022 0.354-15.558 0.707-0.354-0.354 5.657-1.061 1.768-1.06-1.768 0.354-4.597 0.354-5.657 1.414-30.409 2.829-60.111 18.74-80.973 37.481-4.243 3.536-9.193 7.425-12.375 11.314-7.779 8.84-12.729 17.68-18.387 25.459 3.536-7.425 11.315-18.74 20.508-28.287 9.193-9.547 19.094-17.68 24.398-21.923 0 1.414 8.486-5.304 11.669-7.425-2.122 1.768 1.414-0.707 2.121-0.354 11.315-6.718 20.508-9.193 30.763-13.083-2.475 0.707-4.597 1.414-4.951 1.061 2.475-0.707 3.889-1.414 3.536-1.768-9.901 2.829-25.459 9.547-37.834 16.972 22.276-15.204 50.564-24.398 78.497-24.751 27.934-0.707 55.16 6.365 76.729 17.68 14.497 6.365 28.287 18.033 39.249 29.348 3.182 2.829 0.707-0.707 5.304 4.243-1.414-0.707-2.475-1.414-0.707 0.707 2.829 3.182-0.707-2.475 3.889 3.182-0.354 0-1.768-1.768-1.768-1.061 12.376 10.961 21.923 30.762 27.58 43.846-1.414-5.304-4.95-12.729-7.779-18.033 8.486 15.558 11.315 24.751 14.851 38.541 1.414 1.061-0.707-4.95 0.707-2.121 0.354 2.122 0.707 8.84 2.122 9.9-1.061-6.718-2.829-14.851-4.243-16.265 1.061 0.707-1.768-8.133-3.536-10.254-0.707-5.657-5.657-15.558-9.901-22.984-15.204-29.702-42.431-54.099-72.839-67.536 0-0.707-1.768-1.414-2.476-2.121-30.055-12.729-66.122-16.265-100.773-8.133-35.006 8.486-67.889 28.641-91.227 57.636 1.061-3.536 9.901-10.254 10.255-13.083-10.254 10.961-21.215 25.459-28.641 41.016-7.779 15.558-12.022 31.47-13.79 43.138" fill="#31c48d" data-fill-palette-color="tertiary"></path></g><g transform="matrix(1,0,0,1,64.27807487742726,90)"><svg viewBox="0 0 191.44385024514548 180" height="180" width="191.44385024514548"><g><svg viewBox="0 0 224.00000000000003 210.61005589038197" height="180" width="191.44385024514548"><g transform="matrix(1,0,0,1,0,154.85675192562425)"><svg viewBox="0 0 224.00000000000003 55.75330396475771" height="55.75330396475771" width="224.00000000000003"><g><svg viewBox="0 0 224.00000000000003 55.75330396475771" height="55.75330396475771" width="224.00000000000003"><g><svg viewBox="0 0 224.00000000000003 55.75330396475771" height="55.75330396475771" width="224.00000000000003"><g transform="matrix(1,0,0,1,0,0)"><svg width="224.00000000000003" viewBox="0 -37.5 155.16000366210938 38.619998931884766" height="55.75330396475771" data-palette-color="#31c48d"><path d="M35.94 0L35.94 0 32.23 0.34Q29.54-16.5 26.42-28.52L26.42-28.52Q24.8-24.71 22.88-17.8 20.95-10.89 20.21-8.84L20.21-8.84Q20.12-8.84 19.9-8.81 19.68-8.79 19.53-8.79L19.53-8.79Q18.85-8.79 17.29-8.94 15.72-9.08 15.28-9.08L15.28-9.08Q15.23-10.5 12.79-18.53 10.35-26.56 9.86-28.81L9.86-28.81Q8.98-20.9 3.03 0L3.03 0 0-0.29Q0.68-5.62 3.37-17.04 6.05-28.47 6.54-34.72L6.54-34.72Q7.42-34.81 7.96-34.81L7.96-34.81Q8.45-34.81 11.57-34.42L11.57-34.42Q12.26-34.33 13.55-30 14.84-25.68 16.16-20.51 17.48-15.33 17.82-14.4L17.82-14.4Q19.19-17.77 21.12-25.34 23.05-32.91 23.83-34.96L23.83-34.96Q24.61-34.91 28.76-34.52L28.76-34.52Q30.03-29.59 31.23-23.88 32.42-18.16 33.81-10.89 35.21-3.61 35.94 0ZM37.99-16.36L37.99-16.36Q37.99-18.02 37.99-18.87 37.99-19.73 38.06-21.48 38.13-23.24 38.25-24.27 38.38-25.29 38.62-26.93 38.86-28.56 39.26-29.57 39.65-30.57 40.16-31.84 40.67-33.11 41.45-33.89 42.23-34.67 43.16-35.38 44.09-36.08 45.36-36.43 46.63-36.77 48.14-36.77L48.14-36.77Q51.17-36.77 53.42-35.57 55.66-34.38 56.93-32.57 58.2-30.76 58.96-28.13 59.71-25.49 59.93-23.1 60.15-20.7 60.15-17.82L60.15-17.82Q60.15-15.87 60.08-14.31 60.01-12.74 59.79-10.77 59.57-8.79 59.15-7.28 58.74-5.76 58.01-4.22 57.27-2.69 56.27-1.68 55.27-0.68 53.76-0.05 52.24 0.59 50.39 0.59L50.39 0.59Q47.36 0.59 45.19-0.15 43.02-0.88 41.62-2.2 40.23-3.52 39.43-5.66 38.62-7.81 38.3-10.35 37.99-12.89 37.99-16.36ZM56.64-15.97L56.64-15.97Q56.64-18.36 56.27-20.95 55.91-23.54 55.05-26.51 54.2-29.49 52.34-31.37 50.49-33.25 47.9-33.25L47.9-33.25Q45.94-33.25 44.46-30.64 42.97-28.03 42.33-24.78 41.7-21.53 41.7-18.65L41.7-18.65Q41.7-16.65 41.72-15.6 41.75-14.55 41.89-12.62 42.04-10.69 42.31-9.57 42.58-8.45 43.16-6.98 43.75-5.52 44.55-4.71 45.36-3.91 46.65-3.3 47.95-2.69 49.56-2.64L49.56-2.64Q53.12-2.83 54.88-6.64 56.64-10.45 56.64-15.97ZM80.12-35.16L80.12-35.16 83.05-35.01Q83-34.91 79.24-19.24 75.48-3.56 74.12-0.05L74.12-0.05Q73.63 0.05 73.14 0.05L73.14 0.05Q71.77 0.05 70.06-0.29L70.06-0.29Q69.33-2.49 68.38-6.3 67.43-10.11 66.4-14.75 65.38-19.38 64.62-22.97 63.86-26.56 63.03-30.66 62.2-34.77 62.1-35.16L62.1-35.16 64.89-35.16Q66.84-26.17 71.92-6.35L71.92-6.35Q79.44-33.79 80.12-35.16ZM103.65-2.2L103.65-2.2 104.14 0Q102.24 0 97.23 0.17 92.23 0.34 89.98 0.34L89.98 0.34Q86.37 0.34 85.05 0L85.05 0Q85.54-5.37 85.64-17.97 85.73-30.57 86.27-35.55L86.27-35.55Q87.93-35.4 95.09-35.3 102.24-35.21 104.44-34.86L104.44-34.86 104.97-32.67Q102.78-32.28 96.18-31.74 89.59-31.2 89.25-31.15L89.25-31.15Q89.3-30.03 89.47-26.56 89.64-23.1 89.69-20.85L89.69-20.85Q91.35-20.65 95.74-20.29 100.14-19.92 101.31-19.82L101.31-19.82 101.8-17.58Q91.5-16.65 89.74-16.6L89.74-16.6Q89.74-14.45 89.67-10.08 89.59-5.71 89.59-3.66L89.59-3.66Q100.77-2.64 103.65-2.2ZM107.9-1.37L107.9-1.37 108.53-35.16 111.17-35.16 127.14-4.83 127.14-8.69Q127.14-23.44 127.68-35.21L127.68-35.21 130.46-34.67Q131-24.07 131.34 0.24L131.34 0.24Q130.31 0.68 129.19 0.68L129.19 0.68Q127.53 0.68 125.72-0.29L125.72-0.29Q122.74-4.88 118.32-13.72 113.91-22.56 112.05-25.83L112.05-25.83Q112.1-22.51 112.12-13.72 112.15-4.93 112.29-0.39L112.29-0.39Q111.86 1.12 110.59 1.12L110.59 1.12Q109.71 1.12 108.9 0.39 108.1-0.34 107.9-1.37ZM134.7-2.78L134.7-2.78 135.39-5.52Q139.64-3.22 143.74-3.22L143.74-3.22Q146.67-3.22 148.74-4.42 150.82-5.62 150.82-8.3L150.82-8.3Q150.82-10.69 149.06-12.67 147.3-14.65 144.81-16.16 142.32-17.68 139.83-19.26 137.34-20.85 135.58-23.17 133.83-25.49 133.83-28.32L133.83-28.32Q133.83-31.79 136.32-34.64 138.81-37.5 142.32-37.5L142.32-37.5Q145.01-37.5 148.3-36.43 151.6-35.35 153.84-34.28L153.84-34.28 153.26-32.32Q147.69-34.23 143.88-34.23L143.88-34.23Q141.54-34.23 139.88-32.71 138.22-31.2 138.22-28.81L138.22-28.81Q138.22-27 139.15-25.54 140.08-24.07 141.56-23 143.05-21.92 144.88-20.9 146.72-19.87 148.52-18.7 150.33-17.53 151.82-16.16 153.31-14.79 154.24-12.72 155.16-10.64 155.16-8.06L155.16-8.06Q155.16-4.39 152.82-2.08 150.48 0.24 146.72 0.24L146.72 0.24Q143.49 0.24 139.86-0.66 136.22-1.56 134.7-2.78Z" opacity="1" transform="matrix(1,0,0,1,0,0)" fill="#31c48d" class="undefined-text-0" data-fill-palette-color="primary" id="text-0"></path></svg></g></svg></g></svg></g></svg></g><g transform="matrix(1,0,0,1,47.73364102397203,0)"><svg viewBox="0 0 128.53271795205598 128.53271795205598" height="128.53271795205598" width="128.53271795205598"><g><svg></svg></g><g id="icon-0"><svg viewBox="0 0 128.53271795205598 128.53271795205598" height="128.53271795205598" width="128.53271795205598"><g><path d="M0 64.266c0-35.493 28.773-64.266 64.266-64.266 35.493 0 64.266 28.773 64.267 64.266 0 35.493-28.773 64.266-64.267 64.267-35.493 0-64.266-28.773-64.266-64.267zM64.266 123.505c32.717 0 59.238-26.522 59.239-59.239 0-32.717-26.522-59.238-59.239-59.238-32.717 0-59.238 26.522-59.238 59.238 0 32.717 26.522 59.238 59.238 59.239z" data-fill-palette-color="tertiary" fill="#31c48d" stroke="transparent"></path></g><g transform="matrix(1,0,0,1,37.00741607024487,27.272746498371447)"><svg viewBox="0 0 54.517885811566224 73.98722495531308" height="73.98722495531308" width="54.517885811566224"><g><svg xmlns="http://www.w3.org/2000/svg" xmlns:xlink="http://www.w3.org/1999/xlink" version="1.1" x="0" y="0" viewBox="14.99899959564209 2.50100040435791 70.00199890136719 95.0009994506836" enable-background="new 0 0 100 100" xml:space="preserve" height="73.98722495531308" width="54.517885811566224" class="icon-x-0" data-fill-palette-color="accent" id="x-0"><path d="M74.747 12.751c-6.608-6.61-15.396-10.25-24.746-10.25-9.352 0-18.141 3.64-24.75 10.25-6.611 6.611-10.252 15.401-10.252 24.75 0 6.32 1.462 11.617 4.596 16.668 2.771 4.463 6.483 8.147 10.416 12.051 7.252 7.195 15.471 15.354 18.975 30.474 0.109 0.475 0.53 0.808 1.016 0.808 0.482 0 0.904-0.333 1.012-0.808C54.52 81.574 62.739 73.418 69.993 66.22c3.932-3.901 7.646-7.588 10.416-12.051 3.135-5.052 4.592-10.349 4.592-16.668C84.997 28.152 81.357 19.362 74.747 12.751zM50.001 64.771c-15.037 0-27.27-12.232-27.27-27.271s12.232-27.27 27.27-27.27 27.271 12.234 27.271 27.271S65.038 64.771 50.001 64.771z" fill="#096a2e" data-fill-palette-color="accent"></path><circle cx="49.999" cy="37.38" r="1.3" fill="#096a2e" data-fill-palette-color="accent"></circle><path d="M50.001 39.854c-0.36 0-0.745 0.638-1.327 2.203-0.26 0.854-0.281 1.612-0.062 2.191 0.238 0.642 0.771 1.04 1.388 1.04 0.616 0 1.146-0.398 1.386-1.041 0.216-0.58 0.194-1.34-0.063-2.199C50.732 40.469 50.361 39.854 50.001 39.854z" fill="#096a2e" data-fill-palette-color="accent"></path><path d="M50.001 29.471c-0.617 0-1.148 0.398-1.388 1.041-0.22 0.577-0.198 1.335 0.063 2.191 0.579 1.561 0.964 2.198 1.326 2.198s0.733-0.614 1.323-2.19c0.257-0.857 0.278-1.618 0.063-2.198C51.146 29.87 50.615 29.471 50.001 29.471z" fill="#096a2e" data-fill-palette-color="accent"></path><path d="M56.64 39.612c-0.391-0.477-1.061-0.838-1.937-1.044-0.796-0.135-1.354-0.198-1.759-0.198-0.446 0-0.7 0.079-0.799 0.249-0.184 0.312 0.165 0.941 1.243 2.247 0.608 0.652 1.253 1.049 1.862 1.149 0.104 0.017 0.207 0.025 0.307 0.025 0.56 0 1.031-0.257 1.293-0.707C57.156 40.798 57.076 40.138 56.64 39.612z" fill="#096a2e" data-fill-palette-color="accent"></path><path d="M44.745 32.744c-0.104-0.018-0.207-0.026-0.307-0.026-0.554 0-1.034 0.264-1.287 0.707-0.309 0.533-0.229 1.192 0.205 1.721 0.393 0.477 1.061 0.838 1.932 1.043 0.802 0.136 1.363 0.199 1.768 0.199 0.447 0 0.7-0.079 0.799-0.249 0.181-0.312-0.178-0.96-1.237-2.24C46.005 33.245 45.357 32.846 44.745 32.744z" fill="#096a2e" data-fill-palette-color="accent"></path><path d="M52.943 36.388c0.4 0 0.963-0.063 1.771-0.199 0.87-0.206 1.536-0.566 1.926-1.043 0.436-0.525 0.517-1.185 0.211-1.721-0.262-0.45-0.733-0.708-1.294-0.708-0.101 0-0.203 0.009-0.308 0.026-0.609 0.102-1.255 0.502-1.866 1.157-1.063 1.276-1.421 1.925-1.237 2.239C52.244 36.31 52.498 36.388 52.943 36.388z" fill="#096a2e" data-fill-palette-color="accent"></path><path d="M47.055 38.371c-0.405 0-0.966 0.063-1.765 0.198-0.871 0.205-1.54 0.566-1.935 1.044-0.436 0.529-0.514 1.187-0.205 1.717 0.253 0.445 0.734 0.71 1.287 0.71 0.1 0 0.201-0.008 0.304-0.025 0.606-0.099 1.252-0.496 1.869-1.15 1.064-1.283 1.424-1.934 1.242-2.246C47.755 38.449 47.502 38.371 47.055 38.371z" fill="#096a2e" data-fill-palette-color="accent"></path><path d="M64.745 37.278l-0.284 0.018c-0.005-0.825-0.084-1.63-0.251-2.449l0.306-0.057c0.05-0.01 0.096-0.042 0.128-0.086 0.023-0.045 0.031-0.095 0.023-0.145-0.19-0.986-0.471-1.933-0.834-2.814-0.022-0.051-0.06-0.09-0.107-0.108l-0.145 0-0.25 0.123c-0.308-0.729-0.692-1.441-1.178-2.164l0.255-0.169c0.043-0.028 0.073-0.073 0.086-0.127 0.013-0.048 0.002-0.101-0.029-0.148-0.538-0.815-1.16-1.58-1.848-2.274-0.036-0.039-0.087-0.06-0.143-0.06-0.052 0-0.102 0.021-0.137 0.057l-0.188 0.212c-0.597-0.588-1.239-1.116-1.905-1.556l0.167-0.252c0.03-0.043 0.042-0.095 0.032-0.147-0.01-0.052-0.04-0.097-0.085-0.127-0.839-0.567-1.705-1.03-2.653-1.415-0.067 0-0.151 0.042-0.183 0.121l-0.093 0.27c-0.783-0.318-1.579-0.562-2.357-0.712l0.06-0.297c0.012-0.051 0.001-0.104-0.027-0.15-0.029-0.043-0.072-0.073-0.123-0.083-0.962-0.195-1.944-0.294-2.92-0.297-0.109 0-0.197 0.087-0.197 0.195l0.018 0.285c-0.81 0.007-1.634 0.09-2.451 0.235l-0.055-0.286c-0.018-0.094-0.101-0.155-0.23-0.155-0.001 0-0.002 0-0.003 0-0.954 0.184-1.899 0.466-2.81 0.84-0.049 0.02-0.088 0.06-0.108 0.108s-0.021 0.102-0.001 0.149l0.106 0.26c-0.732 0.313-1.436 0.694-2.151 1.156l-0.163-0.243c-0.031-0.049-0.08-0.077-0.161-0.089-0.041 0-0.075 0.01-0.11 0.033-0.807 0.535-1.57 1.159-2.271 1.855-0.038 0.038-0.059 0.086-0.059 0.139 0 0.055 0.021 0.103 0.058 0.14l0.201 0.203c-0.578 0.589-1.102 1.227-1.543 1.893l-0.25-0.168c-0.035-0.022-0.07-0.033-0.111-0.033-0.064 0-0.125 0.031-0.166 0.087-0.548 0.814-1.017 1.683-1.396 2.581-0.039 0.103 0.01 0.218 0.108 0.256l0.27 0.102c-0.322 0.798-0.563 1.592-0.706 2.352l-0.337-0.064c-0.095 0-0.176 0.067-0.192 0.159-0.191 0.943-0.289 1.925-0.291 2.918 0 0.051 0.021 0.102 0.057 0.14 0.041 0.037 0.092 0.058 0.143 0.058l0.28-0.01c0.009 0.801 0.09 1.623 0.239 2.442l-0.286 0.058c-0.108 0.022-0.175 0.125-0.153 0.232 0.185 0.948 0.469 1.893 0.847 2.807 0.031 0.075 0.104 0.123 0.185 0.123l0.076-0.015 0.247-0.124c0.322 0.75 0.72 1.481 1.184 2.158l-0.254 0.168c-0.045 0.031-0.072 0.074-0.082 0.126-0.013 0.047-0.003 0.099 0.029 0.149 0.529 0.802 1.154 1.565 1.856 2.269 0.039 0.037 0.089 0.057 0.14 0.057s0.1-0.02 0.139-0.058l0.188-0.214c0.603 0.589 1.245 1.113 1.903 1.567l-0.16 0.237c-0.06 0.094-0.034 0.214 0.058 0.273 0.811 0.546 1.681 1.013 2.586 1.388l0.071 0.015c0.08 0 0.152-0.048 0.182-0.118l0.095-0.272c0.81 0.322 1.604 0.563 2.354 0.702l-0.061 0.299c-0.005 0.032-0.007 0.095 0.032 0.146 0.031 0.045 0.073 0.073 0.126 0.084 0.961 0.189 1.943 0.285 2.92 0.285 0.105 0 0.194-0.09 0.194-0.197l-0.01-0.28c0.771-0.011 1.556-0.09 2.318-0.243l0.06 0.303c0.02 0.097 0.103 0.156 0.226 0.156 0.001 0 0.001 0 0.001 0 0.963-0.182 1.911-0.461 2.817-0.829 0.049-0.02 0.088-0.061 0.107-0.11 0.02-0.048 0.02-0.1-0.002-0.146l-0.12-0.247c0.734-0.308 1.444-0.689 2.172-1.161l0.163 0.244c0.039 0.057 0.099 0.09 0.161 0.09 0.042 0 0.082-0.012 0.115-0.034 0.807-0.532 1.572-1.152 2.275-1.842 0.077-0.076 0.079-0.199 0.004-0.282l-0.212-0.188c0.573-0.577 1.105-1.222 1.56-1.904l0.251 0.17c0.028 0.023 0.063 0.033 0.143 0.033 0.003 0 0.005 0 0.008 0 0.056-0.01 0.103-0.042 0.124-0.084 0.546-0.797 1.019-1.663 1.402-2.573 0.022-0.047 0.024-0.1 0.006-0.15-0.021-0.049-0.059-0.087-0.109-0.108l-0.264-0.091c0.32-0.783 0.564-1.579 0.714-2.36l0.338 0.064c0.035 0 0.072-0.01 0.11-0.031 0.044-0.029 0.073-0.075 0.079-0.125 0.196-0.94 0.3-1.921 0.31-2.917C64.938 37.369 64.851 37.28 64.745 37.278zM50.001 46.505c-5.032 0-9.126-4.094-9.126-9.126 0-5.033 4.094-9.127 9.126-9.127 5.031 0 9.125 4.095 9.125 9.127C59.125 42.411 55.031 46.505 50.001 46.505z" fill="#096a2e" data-fill-palette-color="accent"></path></svg></g></svg></g></svg></g></svg></g><g></g></svg></g></svg></g></svg></g></svg><rect width="112" height="40" fill="none" stroke="none" visibility="hidden"></rect></g></svg></g></svg>